FFmpeg version SVN-r25716, Copyright (c) 2000-2010 the FFmpeg developers  built on Nov 10 2010 12:23:18 with gcc 4.1.2 20080704 (Red Hat 4.1.2-48)  configuration: --enable-libmp3lame --enable-shared --disable-mmx --arch=x86_64  libavutil     50.33. 0 / 50.33. 0  libavcore      0.12. 1 /  0.12. 1  libavcodec    52.94. 4 / 52.94. 4  libavformat   52.84. 0 / 52.84. 0  libavdevice   52. 2. 2 / 52. 2. 2  libavfilter    1.59. 0 /  1.59. 0  libswscale     0.12. 0 /  0.12. 0Seems stream 0 codec frame rate differs from container frame rate: 1200.00 (1200/1) -> 7.00 (7/1)Input #0, mov,mp4,m4a,3gp,3g2,mj2, from '/RAID10/data/converted_video_files/11991.mov':  Metadata:    major_brand     : qt      minor_version   : 537199360    compatible_brands: qt    Duration: 00:00:53.71, start: 0.000000, bitrate: 1454 kb/s    Stream #0.0(eng): Video: h264, yuv420p, 360x322, 1453 kb/s, 7 fps, 7 tbr, 600 tbn, 1200 tbc[buffer @ 0xb7b0920] w:360 h:322 pixfmt:yuv420pOutput #0, flv, to '/RAID10/data/converted_video_files/11991.flv':  Metadata:    encoder         : Lavf52.84.0    Stream #0.0(eng): Video: flv, yuv420p, 360x322, q=2-31, 600 kb/s, 1k tbn, 24 tbcStream mapping:  Stream #0.0 -> #0.0Press [q] to stop encodingframe=   45 fps=  0 q=4.5 size=     814kB time=6.33 bitrate=1052.4kbits/s    frame=   79 fps= 75 q=4.3 size=    1182kB time=11.17 bitrate= 867.4kbits/s    frame=  119 fps= 76 q=3.6 size=    1571kB time=16.92 bitrate= 760.7kbits/s    frame=  169 fps= 82 q=2.9 size=    2035kB time=24.04 bitrate= 693.3kbits/s    frame=  217 fps= 81 q=2.5 size=    2477kB time=30.92 bitrate= 656.4kbits/s    frame=  245 fps= 76 q=3.2 size=    2716kB time=34.92 bitrate= 637.3kbits/s    frame=  277 fps= 78 q=2.4 size=    3036kB time=39.46 bitrate= 630.3kbits/s    frame=  324 fps= 80 q=2.5 size=    3153kB time=46.17 bitrate= 559.4kbits/s    frame=  376 fps= 82 q=2.5 Lsize=    3153kB time=53.62 bitrate= 481.6kbits/s    video:3147kB audio:0kB global headers:0kB muxing overhead 0.193226%